<svg aria-hidden="true" style="position:absolute;width:0;height:0" xmlns="http://www.w3.org/2000/svg" overflow="hidden">
  <defs>
    <symbol id="icon-twitter_circle" viewBox="0 0 33 32">
      <path fill="none" stroke="var(--color1, #ffff)" stroke-width=".686" d="M31.889 16.041c0 8.439-6.919 15.279-15.454 15.279S.981 24.479.981 16.041C.981 7.602 7.9.761 16.435.761s15.454 6.841 15.454 15.28z"/>
      <path fill="var(--color2, #ffff)" d="M13.553 23.088c6.02 0 9.312-4.931 9.312-9.207 0-.14-.003-.28-.009-.418a6.631 6.631 0 0 0 1.633-1.675 6.567 6.567 0 0 1-1.88.509 3.246 3.246 0 0 0 1.439-1.79 6.6 6.6 0 0 1-2.078.785 3.287 3.287 0 0 0-2.389-1.022c-1.808 0-3.273 1.449-3.273 3.236 0 .254.029.501.085.738a9.326 9.326 0 0 1-6.746-3.381 3.2 3.2 0 0 0-.443 1.626c0 1.123.578 2.114 1.456 2.694a3.266 3.266 0 0 1-1.482-.405l-.001.041c0 1.567 1.128 2.876 2.626 3.172a3.315 3.315 0 0 1-1.478.056 3.274 3.274 0 0 0 3.058 2.248 6.613 6.613 0 0 1-4.065 1.385c-.264 0-.525-.015-.781-.045a9.342 9.342 0 0 0 5.017 1.454z"/>
    </symbol>
    <symbol id="icon-instagram_circle" viewBox="0 0 33 32">
      <path fill="none" stroke="var(--color1, #ffff)" stroke-width=".686" d="M32 16.041c0 8.439-6.919 15.279-15.454 15.279S1.092 24.479 1.092 16.041c0-8.439 6.919-15.28 15.454-15.28S32 7.602 32 16.041z"/>
      <path fill="var(--color2, #ffff)" d="M16.887 8.232c-2.238 0-2.518.009-3.397.049-.877.04-1.476.177-2 .379-.542.208-1.001.487-1.459.94s-.74.907-.95 1.443c-.204.518-.343 1.11-.383 1.977-.04.869-.05 1.146-.05 3.359s.009 2.49.05 3.359c.04.867.179 1.459.383 1.977.211.536.492.99.95 1.443s.918.731 1.459.94c.524.201 1.123.339 2 .379.879.04 1.159.049 3.397.049s2.518-.009 3.397-.049c.877-.04 1.476-.177 2-.379.542-.208 1.001-.487 1.459-.94s.74-.907.95-1.443c.204-.518.343-1.11.383-1.977.04-.869.05-1.146.05-3.359s-.009-2.49-.05-3.359c-.04-.867-.179-1.459-.383-1.977-.211-.536-.492-.99-.95-1.443s-.918-.731-1.459-.94c-.524-.201-1.123-.339-2-.379-.879-.04-1.159-.049-3.397-.049zm0 1.468c2.2 0 2.461.008 3.329.047.803.036 1.24.169 1.53.28.385.148.659.324.947.609s.467.556.616.937c.113.287.247.718.284 1.513.04.859.048 1.117.048 3.292s-.008 2.433-.048 3.292c-.037.794-.171 1.226-.284 1.513-.149.38-.328.652-.616.937s-.563.462-.947.609c-.29.112-.727.244-1.53.28-.869.039-1.129.047-3.329.047s-2.461-.008-3.33-.047c-.803-.036-1.24-.169-1.53-.28-.385-.148-.659-.324-.947-.609s-.467-.556-.616-.937c-.113-.287-.247-.718-.284-1.513-.04-.859-.048-1.117-.048-3.292s.008-2.433.048-3.292c.037-.794.171-1.226.284-1.513.149-.38.328-.652.616-.937s.563-.462.947-.609c.29-.112.727-.244 1.53-.28.869-.039 1.129-.047 3.33-.047z"/>
      <path fill="var(--color2, #ffff)" d="M16.887 19.094c-1.517 0-2.747-1.216-2.747-2.715s1.23-2.716 2.747-2.716 2.747 1.216 2.747 2.716-1.23 2.715-2.747 2.715zm0-6.899c-2.337 0-4.231 1.873-4.231 4.183s1.894 4.183 4.231 4.183c2.337 0 4.231-1.873 4.231-4.183s-1.894-4.183-4.231-4.183zM22.274 12.03c0 .54-.443.978-.989.978s-.989-.438-.989-.978.443-.978.989-.978.989.438.989.978z"/>
    </symbol>
    <symbol id="icon-facebook_circle" viewBox="0 0 33 32">
      <path fill="var(--color2, #ffff)" d="M17.113 24.004v-7.185h2.453l.366-2.812h-2.819v-1.791c0-.814.23-1.365 1.409-1.365h1.506V8.34a21.015 21.015 0 0 0-2.187-.109c-2.167 0-3.645 1.307-3.645 3.706v2.069H11.75v2.812h2.446v7.185h2.916z"/>
      <path fill="none" stroke="var(--color1, #ffff)" stroke-width=".686" d="M31.67 16.041c0 8.439-6.919 15.279-15.454 15.279S.762 24.479.762 16.041C.762 7.602 7.681.761 16.216.761S31.67 7.602 31.67 16.041z"/>
    </symbol>
  </defs>
</svg>
